<svg xmlns="http://www.w3.org/2000/svg" style="display: none;"><symbol id="paw" viewBox="0 0 512 512"><title>paw</title><g> <g> <path d="M378.608,290.994C344.16,249.402,300.618,226.496,256,226.496s-88.161,22.906-122.607,64.498 c-30.963,37.385-49.448,84.501-49.448,126.035c0,20.176,6.168,35.544,18.332,45.679c12.006,10.004,27.857,13.388,45.541,13.387 c18.817,0,39.711-3.832,60.24-7.598c17.939-3.291,34.883-6.399,47.943-6.399c11.272,0,27.165,2.95,43.988,6.073 c39.317,7.3,83.881,15.572,109.624-5.832c12.238-10.175,18.443-25.42,18.443-45.31 C428.057,375.495,409.572,328.379,378.608,290.994z"/> </g> </g><g> <g> <path d="M382.13,65.146c-12.604-18.583-30.652-29.24-49.517-29.24c-18.866,0-36.913,10.658-49.517,29.24 c-11.578,17.071-17.955,39.489-17.955,63.125c0,23.636,6.376,46.054,17.955,63.125c12.604,18.582,30.652,29.24,49.517,29.24 c18.866,0,36.913-10.658,49.517-29.24c11.578-17.071,17.955-39.489,17.955-63.125C400.085,104.635,393.709,82.216,382.13,65.146z"/> </g> </g><g> <g> <path d="M228.905,65.145c-12.604-18.583-30.651-29.24-49.517-29.24s-36.914,10.658-49.517,29.24 c-11.578,17.071-17.955,39.489-17.955,63.125s6.376,46.054,17.955,63.125c12.604,18.583,30.651,29.241,49.517,29.241 s36.913-10.658,49.517-29.241c11.578-17.071,17.955-39.488,17.955-63.125C246.859,104.634,240.483,82.215,228.905,65.145z"/> </g> </g><g> <g> <path d="M509.019,210.133c-5.081-17.284-15.972-29.843-30.665-35.362c-11.824-4.441-25.171-3.688-37.583,2.121 c-17.105,8.004-31.086,24.532-38.356,45.345c-5.941,17.008-6.682,34.985-2.085,50.622c5.081,17.284,15.972,29.843,30.666,35.362 c5.085,1.91,10.45,2.859,15.902,2.859c7.227,0,14.607-1.669,21.682-4.98c17.105-8.004,31.086-24.532,38.356-45.344v-0.001 C512.876,243.748,513.617,225.77,509.019,210.133z"/> </g> </g><g> <g> <path d="M109.587,222.235c-7.271-20.813-21.252-37.34-38.356-45.344c-12.413-5.809-25.761-6.561-37.584-2.121 c-14.694,5.52-25.585,18.079-30.666,35.362c-4.597,15.637-3.856,33.615,2.085,50.622v0.001 c7.272,20.813,21.252,37.34,38.356,45.344c7.076,3.311,14.455,4.98,21.682,4.98c5.452,0,10.818-0.95,15.902-2.859 c14.696-5.52,25.586-18.079,30.667-35.362C116.268,257.222,115.527,239.244,109.587,222.235z"/> </g> </g></symbol><symbol id="right-chevron" viewBox="0 0 444.819 444.819"><title>right-chevron</title><path d="M352.025,196.712L165.884,10.848C159.029,3.615,150.469,0,140.187,0c-10.282,0-18.842,3.619-25.697,10.848L92.792,32.264 c-7.044,7.043-10.566,15.604-10.566,25.692c0,9.897,3.521,18.56,10.566,25.981l138.753,138.473L92.786,361.168 c-7.042,7.043-10.564,15.604-10.564,25.693c0,9.896,3.521,18.562,10.564,25.98l21.7,21.413 c7.043,7.043,15.612,10.564,25.697,10.564c10.089,0,18.656-3.521,25.697-10.564l186.145-185.864 c7.046-7.423,10.571-16.084,10.571-25.981C362.597,212.321,359.071,203.755,352.025,196.712z"/></symbol><symbol id="blind" viewBox="0 0 511.763 511.763"><title>blind</title><path d="m457.95 485.47h-2.37l-.076-60.415-10.103 53.644c8.861 7.224 7.625 17.615 7.733 18.126 0 1.048-.117 2.068-.328 3.054h11.662c1.687 0 3.054-1.367 3.054-3.054v-1.782c.001-5.288-4.285-9.573-9.572-9.573z"/><path d="m417.213 339.626c1.526-2.062 2.955-3.99 4.302-5.804l-192.946-73.855c-.397 4.706-1.865 9.393-4.508 13.69-.521.847-1.079 1.656-1.665 2.435l174.02 66.611z"/><g><path d="m347.37 442.674c-2.566 3.55-5.614 7.275-8.894 10.88l2.549 40.766c.195 3.122 2.783 5.558 5.91 5.558h16.512c1.687 0 3.055-1.367 3.055-3.054v-1.782c0-5.166-4.095-9.364-9.214-9.554l8.388-45.759s-9.971-1.235-14.538-1.808c-1.17 1.681-2.43 3.266-3.768 4.753z"/></g><path d="m510.446 340.287-7.302-4.47c-3.046-1.865-5.382-4.653-6.848-7.909-3.534-7.846-10.538-13.735-19.09-15.767l-4.307-1.023c-2.487-.949-4.174-3.269-4.332-5.926-.134-2.256-.185-4.634-.085-6.974.11-2.593.405-5.137.981-7.409.326-1.288-.831-2.493-2.134-2.234-3.969.789-8.161 4.803-12.104 10.081-9.508 12.725-18.938 34.632-18.938 34.632l44.3 30.807c3.547 0 8.764.52 12.344 1.826 1.597.583 3.25.866 4.887.866 4.002 0 7.906-1.69 10.65-4.814 0 .001 5.833-18.235 1.978-21.686z"/><path d="m424.449 351.831 36.317 25.063c1.637 1.13 3.875.754 5.053-.849l3.87-5.266c1.243-1.692.821-4.079-.927-5.241l-36.36-24.175c-1.536-1.022-3.592-.747-4.806.642l-3.827 4.378c-1.446 1.654-1.128 4.199.68 5.448z"/><path d="m214.206 264.947c5.674-9.222 2.797-21.298-6.425-26.971l-61.941-38.107-15.477-44.434 20.705 34.066 61.396 37.771 23.955 6.086c10.502 2.644 21.155-3.729 23.797-14.227 2.643-10.5-3.727-21.155-14.227-23.797l-57.128-14.436-26.299-30.295.532-7.951c1.07-15.995-11.03-29.829-27.025-30.898l-51.647-3.453c-15.995-1.069-29.828 11.03-30.898 27.024l-9.656 148.61s2.793 56.228 4.157 83.663l-45.837 98.852c-5.466 11.788-.341 25.774 11.447 31.24 11.787 5.465 25.774.341 31.24-11.447l48.278-104.12c1.605-3.46 2.343-7.259 2.154-11.068l-4.185-83.96 10.606.709 26.032 77.413 9.88 113.175c1.125 12.887 12.478 22.524 25.483 21.391 12.944-1.13 22.521-12.539 21.391-25.483l-10.124-115.968c-.162-1.856-.544-3.687-1.138-5.453l-20.741-61.679.647.043 1.75-26.175c-12.978-7.984-31.921-19.638-45.955-28.272-5.006-3.08-8.066-8.225-8.771-13.632l-6.847-54.833 17.773 51.027c1.485 4.263 4.396 7.884 8.241 10.249l67.886 41.765c9.182 5.649 21.272 2.838 26.971-6.425z"/><path d="m117.057 97.712c23.678 1.583 44.155-16.328 45.739-40.006 1.583-23.677-16.328-44.155-40.005-45.738s-44.155 16.328-45.738 40.005c-1.584 23.678 16.327 44.155 40.004 45.739z"/><path d="m451.053 408.16c2.878-7.115 5.659-14.673 8.095-21.601-49.285-34.284-48.669-34.3-48.669-34.3s-82.815 10.85-91.921 15.462c-4.153.858-14.441 5.306-21.928 11.163-6.147 4.729-11.289 10.487-15.304 16.7-.002.003-.004.006-.006.009-4.06 6.2-7.002 12.859-9.166 19.61-2.052 6.452-3.619 14.024-4.004 20.815-.115 2.003 1.322 3.859 3.453 4.127 1.998.251 3.837-1.162 4.328-3.115l.023-.092c1.458-5.786 3.848-11.886 6.76-17.377 2.328-4.368 5.02-8.472 8.083-12.125-.676 8.139.204 11.601.746 21.623.787 12.592 2.984 47.729 4.08 65.264v.003c.195 3.126 2.784 5.552 5.916 5.552h16.506c1.687 0 3.054-1.368 3.054-3.054v-1.782c0-5.166-4.095-9.364-9.214-9.554.738-3.919 5.923-31.45 5.923-31.45 15.947-8.442 30.181-30.057 30.653-48.171.081-3.126 2.258-5.909 5.358-6.32 3.805-.505 7.053 2.442 7.053 6.147 0 7.625-1.427 14.856-3.966 21.344 17.898 2.235 55.44 6.531 55.44 6.531l3.798 60.754c.195 3.12 2.78 5.556 5.906 5.558 18.211.012 16.961.073 17.705-.242 2.187-.925 1.865-3.087 1.865-4.602-.003-5.059-4.003-9.355-9.213-9.549 0 0 0 0-.001 0l12.639-67.11c2.449-3.038 4.488-6.461 6.008-10.218z"/></symbol><symbol id="grooming" viewBox="0 0 512 512"><title>grooming</title><circle cx="125" cy="265.002" r="55"/><path d="m87.538 188.727c8.903-4.391 18.675-7.276 28.99-8.301l-61.601-153.995c-3.076-7.691-11.803-11.432-19.498-8.356-7.691 3.077-11.433 11.807-8.355 19.499z"/><path d="m215.113 37.083c2.806-7.795-1.238-16.388-9.032-19.194-7.799-2.808-16.389 1.238-19.194 9.032l-55.212 153.368c10.335.807 20.156 3.462 29.131 7.649z"/><path d="m467 17.002c-10.084 0-86.889 0-96 0-8.284 0-15 6.716-15 15s6.716 15 15 15h63v34h-63c-8.284 0-15 6.716-15 15s6.716 15 15 15h63v34h-63c-8.284 0-15 6.716-15 15s6.716 15 15 15h63v34h-63c-8.284 0-15 6.716-15 15s6.716 15 15 15h63v34h-63c-8.284 0-15 6.716-15 15s6.716 15 15 15h63v34h-63c-8.284 0-15 6.716-15 15s6.716 15 15 15h63v34h-63c-8.284 0-15 6.716-15 15s6.716 15 15 15h63v34h-63c-8.284 0-15 6.716-15 15s6.716 15 15 15h96c24.813 0 45-20.187 45-45v-388c0-24.813-20.187-45-45-45z"/><path d="m103.859 395.263-14.863-7.863 14.464-40.17c-9.925-2.602-19.136-6.969-27.304-12.727l-13.95 38.741c-4.596-2.252-10.035-2.015-14.42.666l-40.611 24.833c-4.457 2.726-7.175 7.573-7.175 12.797v46.647c0 5.541 3.055 10.63 7.944 13.237l40.923 21.814c4.664 2.486 10.292 2.335 14.816-.4l41.077-24.833c4.509-2.726 7.257-7.618 7.239-12.886l-.155-46.647c-.018-5.54-3.088-10.619-7.985-13.209zm-48.402 67.493-25.457-13.57v-29.236l26.148-15.989 25.727 13.61.097 29.155z"/><path d="m250.854 396.371-41.569-24c-4.563-2.635-10.175-2.681-14.78-.125l-1.021.567-16.314-40.776c-7.905 6.166-16.912 10.98-26.688 14.059l16.562 41.396-13.323 7.396c-4.844 2.689-7.811 7.828-7.718 13.367l.784 46.641c.089 5.269 2.935 10.104 7.498 12.738l41.569 24c4.492 2.594 10.104 2.721 14.78.125l40.785-22.641c4.844-2.689 7.811-7.828 7.718-13.367l-.785-46.641c-.089-5.269-2.936-10.105-7.498-12.739zm-47.355 65.036-26.859-15.507-.49-29.15 25.49-14.151 26.859 15.507.49 29.15z"/></symbol><symbol id="dog-eating" viewBox="0 0 422.256 422.256"><title>dog-eating</title><path d="M422.163,324.509c-0.008-0.043-7.438-32.286-7.438-32.286c-0.072-0.316,0.126,0.288,0,0 c-4.504-13.63-43.815-14.048-48.539-14.048c-4.724,0-44.035,0.419-48.538,14.049c-0.126,0.287,0.072-0.316,0,0 c0,0-7.43,32.242-7.438,32.286c-0.057,0.304-0.093,0.611-0.093,0.92c0,6.283,6.282,11.139,18.673,14.434 c10.053,2.673,23.333,4.146,37.396,4.146s27.344-1.472,37.397-4.146c12.391-3.294,18.673-8.151,18.673-14.434 C422.256,325.12,422.22,324.813,422.163,324.509z M404.152,294.552c-4.154,2.695-17.83,6.378-37.966,6.378 c-20.137,0-33.811-3.683-37.966-6.379c4.155-2.695,17.831-6.377,37.966-6.377C386.322,288.175,399.999,291.857,404.152,294.552z"/><path d="M363.632,218.938c5.012,0,10.099-0.558,15.121-1.656c2.458-0.538,4.578-2.08,5.848-4.252 c1.268-2.172,1.57-4.777,0.832-7.182l-10.968-35.705c7.246-8.915,8.887-21.195,4.381-31.654l15.274-14.758 c2.574-2.486,3.43-6.261,2.181-9.615c-1.249-3.354-4.366-5.648-7.939-5.844l-11.702-0.643l10.657-15.216 c2.238-3.197,2.162-7.472-0.19-10.586c-2.352-3.114-6.441-4.361-10.131-3.08l-136.398,47.291 c-1.269,0.087-148.181,8.173-148.253,8.178c-31.255,1.881-60.829-14.839-75.372-42.585c-2.307-4.402-7.746-6.102-12.149-3.794 c-4.402,2.308-6.101,7.747-3.794,12.149c13.044,24.888,35.966,42.522,62.331,49.297c-3.083,3.855-8.285,11.584-11.454,23.036 c-3.809,13.769-5.205,35.656,8.583,63.393l-22.251,30.224c-1.474,2.002-2.054,4.524-1.603,6.968l9.944,53.922 c0.787,4.269,4.51,7.368,8.851,7.368H65.56c2.669,0,5.2-1.185,6.91-3.234c1.71-2.049,2.422-4.752,1.944-7.378l-6.192-34.017 l66.198-49.695c0.132-0.099-0.126,0.106,0,0c5.472-4.597,9.676-9.585,12.874-14.737c25.125,5.675,56.554,12.43,81.689,16.738 l13.322,84.72c0.688,4.377,4.46,7.602,8.891,7.602h8.334c4.971,0,9-4.029,9-9v-86.238c8.557-6.024,10.874-17.193,12.267-23.774 c0.065-0.308-0.032,0.306,0,0c0.026-0.127-0.021,0.129,0,0l3.713-23.139l20.447-11.874 C314.733,203.774,337.067,218.939,363.632,218.938z"/></symbol><symbol id="stethoscope" viewBox="0 0 512 512"><title>stethoscope</title><path d="m437 241c-36.216 0-66.513 25.809-73.482 60h-18.518c-41.353 0-75 33.647-75 75v61c0 24.814-20.186 45-45 45s-45-20.186-45-45v-48.763c17.422-6.213 30-22.707 30-42.237v-26.501c71.418-35.907 120-150.245 120-214.499 0-35.803-3.267-53.485-31.018-69.388-4.334-20.317-22.39-35.612-43.982-35.612-24.814 0-45 20.186-45 45s20.186 45 45 45c16.401 0 30.634-8.912 38.5-22.057 5.599 6.03 6.5 14.973 6.5 37.057 0 73.345-65.391 196-135 196s-135-122.655-135-196c0-22.084.901-31.027 6.5-37.057 7.866 13.145 22.099 22.057 38.5 22.057 24.814 0 45-20.186 45-45s-20.186-45-45-45c-21.592 0-39.648 15.295-43.982 35.612-27.751 15.903-31.018 33.585-31.018 69.388 0 64.254 48.582 178.592 120 214.499v26.501c0 19.53 12.578 36.024 30 42.237v48.763c0 41.353 33.647 75 75 75s75-33.647 75-75v-61c0-24.814 20.186-45 45-45h18.518c6.969 34.191 37.266 60 73.482 60 41.353 0 75-33.647 75-75s-33.647-75-75-75zm15 90h-30v-30h30z"/></symbol><symbol id="customer-service" viewBox="0 0 496 496"><title>customer-service</title><g> <g> <path d="M402.524,432l-18.52-55.568c-6.472-19.4-22.984-33.72-43.112-37.384l-53.464-9.728v-4.144 c9.304-5.4,17.4-12.624,23.848-21.176h16.152c13.232,0,24-10.768,24-24v-96c0-57.344-46.656-104-104-104s-104,46.656-104,104v56 c0,15.424,10.968,28.328,25.512,31.336c4.488,22.992,18.856,42.448,38.488,53.84v4.144l-53.472,9.728 c-20.12,3.664-36.64,17.984-43.104,37.384l-3.2,9.608l-27.248-27.248c-3.12-3.12-3.12-8.2,0-11.32l31.6-31.592l-59.312-59.312 L16.98,292.28c-10.576,10.576-16.4,24.64-16.4,39.6s5.824,29.016,16.4,39.592l108.12,108.12C135.676,490.168,149.74,496,164.7,496 c14.96,0,29.016-5.832,39.344-16.168l38.968-35.704L230.86,432H402.524z M335.428,280c0,4.416-3.592,8-8,8H320.7 c2.32-5.288,4.08-10.864,5.216-16.664c3.424-0.712,6.576-2.072,9.512-3.784V280z M327.428,253.776v-27.552 c4.76,2.776,8,7.88,8,13.776S332.188,251,327.428,253.776z M167.428,253.776c-4.76-2.776-8-7.88-8-13.776s3.24-11,8-13.776 V253.776z M167.428,200v9.136c-2.848,0.744-5.52,1.864-8,3.312V184c0-48.52,39.48-88,88-88s88,39.48,88,88v28.448 c-2.48-1.448-5.152-2.576-8-3.312V200h-8c-23.656,0-45.896-9.216-62.632-25.944l-9.368-9.368l-9.368,9.368 C221.324,190.784,199.084,200,175.428,200H167.428z M183.428,256v-40.304c24.024-1.808,46.424-11.72,64-28.432 c17.576,16.712,39.976,26.632,64,28.432V256c0,11.664-3.184,22.576-8.656,32h-55.344v16h42.192c-11.28,9.928-26.024,16-42.192,16 C212.14,320,183.428,291.288,183.428,256z M271.428,332.312v0.376l-24,24l-24-24v-0.376c7.584,2.384,15.64,3.688,24,3.688 S263.844,334.696,271.428,332.312z M126.02,381.488c4.616-13.856,16.416-24.088,30.792-26.712l55.92-10.16l34.696,34.696 l34.688-34.688l55.912,10.16c14.376,2.624,26.176,12.848,30.792,26.712L380.332,416H214.86l-31.16-31.16l-34.624,31.32 c-3.016,3.032-8.288,3.032-11.312,0l-17.472-17.472L126.02,381.488z M52.684,279.192l36.688,36.688l-8.688,8.688L43.996,287.88 L52.684,279.192z M192.964,468.296c-7.552,7.536-17.6,11.704-28.28,11.704c-10.68,0-20.728-4.168-28.288-11.72L28.276,360.168 c-7.552-7.552-11.712-17.6-11.712-28.28c0-10.688,4.16-20.736,11.712-28.288l4.4-4.4l36.688,36.688l-0.288,0.288 c-9.352,9.36-9.352,24.584,0,33.944l57.368,57.368c4.536,4.528,10.56,7.032,16.976,7.032s12.44-2.496,16.68-6.752l0.6-0.536 l36.856,36.856L192.964,468.296z M209.364,453.256l-36.776-36.776l10.568-9.552l36.712,36.712L209.364,453.256z"/> </g> </g><g> <g> <path d="M471.428,0h-112c-13.232,0-24,10.768-24,24v64c0,13.232,10.768,24,24,24h21.368l-8.272,48.248l77.2-48.248h21.704 c13.232,0,24-10.768,24-24V24C495.428,10.768,484.66,0,471.428,0z M479.428,88c0,4.408-3.592,8-8,8h-26.296l-50.808,31.752 L399.772,96h-40.344c-4.408,0-8-3.592-8-8V24c0-4.408,3.592-8,8-8h112c4.408,0,8,3.592,8,8V88z"/> </g> </g><g> <g> <rect x="367.428" y="32" width="96" height="16"/> </g> </g><g> <g> <rect x="367.428" y="64" width="64" height="16"/> </g> </g><g> <g> <rect x="447.428" y="64" width="16" height="16"/> </g> </g><g> <g> <path d="M247.428,24C142.9,24,52.86,96.304,29.452,197.16l-15.16-25.272l-13.72,8.232l28.12,46.856l46.856-28.12l-8.232-13.72 l-21.68,13.008C68.308,105.88,151.276,40,247.428,40c21.016,0,41.752,3.12,61.632,9.28L313.796,34 C292.38,27.36,270.052,24,247.428,24z"/> </g> </g><g> <g> <path d="M491.54,177.136l-46.856-28.12l-28.112,46.864l13.72,8.232l14-23.336c7.368,21.56,11.136,44.112,11.136,67.224 c0,47.576-16.48,94.088-46.392,130.96l12.424,10.08c32.224-39.712,49.968-89.808,49.968-141.04 c0-24.472-3.944-48.368-11.632-71.248l23.512,14.104L491.54,177.136z"/> </g> </g></symbol><symbol id="emergency-call" viewBox="0 0 512 512"><title>emergency-call</title><path d="m177.115 198.713-63.98-109.534-31.191 21.817c18.049 39.47 38.421 76.836 60.699 111.335z"/><path d="m309.007 389.507c35.233 22.778 73.374 43.503 113.673 61.752 12.254-17.519 21.579-30.851 21.621-30.912l-109.532-63.981z"/><path d="m197.029 336.451c-29.537-29.117-55.959-61.855-79.323-97.035l.176-.121c-22.288-34.441-42.718-71.624-60.912-110.825-34.4 24.184-45.561 70.326-25.571 107.344 30.616 56.694 68.265 109.108 113.03 153.237 44.075 44.618 96.378 82.336 153.193 113.035 37.084 20.038 83.335 8.824 107.494-25.717.027-.039.054-.077.081-.116-40.602-18.673-79.069-39.799-114.668-62.975 0 0-65.412-48.388-93.5-76.827z"/><path d="m457.02 0h-186.463c-18.491 0-33.481 14.99-33.481 33.481v147.831c0 18.491 14.99 33.481 33.481 33.481h36.056v66.962l100.443-66.962h49.964c18.491 0 33.481-14.99 33.481-33.481v-147.831c0-18.491-14.99-33.481-33.481-33.481zm-44.244 122.396h-33.988v33.987h-30v-33.987h-33.987v-30h33.987v-33.987h30v33.987h33.988z"/></symbol><symbol id="veterinarian" viewBox="0 0 480 480"><title>veterinarian</title><circle cx="273.993" cy="136" r="10"/><circle cx="333.993" cy="136" r="10"/><circle cx="351.993" cy="344" r="8"/><path d="m412.725 270.4 7.384-17.488c7.875-18.602 3.653-40.124-10.666-54.372-6.316-6.31-9.863-14.872-9.86-23.8l.41-78.74c0-53.019-42.981-96-96-96s-96 42.981-96 96v78.74c-.026 8.921-3.568 17.473-9.857 23.8-14.279 14.268-18.496 35.762-10.668 54.368l3.674 8.738c-12.781 8.325-22.772 20.292-28.682 34.354h-21.977c-7.392-.023-14.377 3.383-18.909 9.223-.57.728-1.098 1.488-1.581 2.277-2.379 3.87-3.599 8.341-3.517 12.883.034 1.835.276 3.661.722 5.442l1.03 4.12 3.939 15.754c4.43 17.819 20.439 30.321 38.8 30.3h10.887l-7.2 16.806c-.615 1.439-1.267 2.874-1.934 4.305-1.519-.813-3.12-1.461-4.776-1.934l-1.323-.374c-6.124-1.748-12.692-.974-18.242 2.15-10.547 5.93-18.93 15.066-23.934 26.083l-3.853 8.533c-4.436 9.82-2.833 21.315 4.12 29.546-1.541 2.159-3.024 4.345-4.451 6.558-2.39 3.716-1.316 8.666 2.4 11.056 1.292.831 2.796 1.273 4.332 1.272h275c22.081-.025 39.975-17.919 40-40v-127.34c.002-16.213-7.027-31.63-19.268-42.26zm3.268 42.26v31.34h-29.451c-.867-1.149-1.766-2.275-2.726-3.354-1.419-13.27-10.907-24.275-23.823-27.633v-43.57l14.684 2.448h.008l7.884 1.319c19.292 3.202 33.434 19.894 33.424 39.45zm-46.183 90.264c-.035.043-.066.09-.1.134-.127.162-.252.324-.367.5-.028.043-.051.088-.079.131-.114.177-.224.356-.324.542-.017.031-.03.065-.047.1-.1.2-.2.4-.289.611-.009.021-.015.044-.024.065-.089.219-.17.442-.24.67-.007.024-.011.049-.018.072-.066.225-.126.452-.172.685-.013.063-.018.129-.03.192-.033.193-.067.386-.087.583-.026.264-.04.531-.04.8v8h-52.686l-8.967-8.967c-.737-.731-1.521-1.413-2.347-2.042v-86.45c.002-8.075-1.385-16.09-4.1-23.695 3.508 2.115 8.048 1.227 10.5-2.055l21.163-28.217c.592.174 1.193.313 1.8.418l10.637 1.773v46.239c-17.114 4.41-27.413 21.859-23.003 38.973s21.859 27.413 38.973 23.003c7.557-1.947 14.141-6.588 18.515-13.051 5.668 13.877 2.46 29.8-8.139 40.4-.186.188-.362.383-.529.586zm-129.833-274.924h.016v32c-8.837.004-16.004-7.155-16.008-15.992s7.155-16.004 15.992-16.008zm144.016 16c-.01 8.832-7.168 15.99-16 16v-32c8.832.01 15.99 7.168 16 16zm-32 16h-51.056l10.211-20.422c2.007-3.936.443-8.754-3.493-10.761s-8.754-.443-10.761 3.493c-.019.037-.037.074-.056.112l-13.789 27.578h-27.056v-38.784c11.216-7.034 19.909-17.446 24.828-29.737l1.285-3.213c17.743 21.038 42.631 34.78 69.887 38.588zm-64.041 16h.035.028 63.978c0 26.51-21.49 48-48 48s-48-21.49-48-48zm16.041 64c5.397.003 10.774-.677 16-2.025v11.245c.004 1.2.142 2.396.411 3.565l-16.411 21.882-16.467-21.956c.305-1.234.462-2.5.467-3.771v-10.965c5.226 1.348 10.603 2.028 16 2.025zm-16 102.7c0 8.837-7.163 16-16 16s-16-7.163-16-16v-30.7h20.687l11.313 11.313zm80 1.3c0 8.837-7.163 16-16 16s-16-7.163-16-16 7.163-16 16-16c8.833.01 15.99 7.168 16 16zm37.37-97.3-6.306 14.935c-4.416-1.998-9.073-3.411-13.854-4.205l-7.888-1.319h-.006l-41.316-6.891v-17.83c19.787-11.43 31.983-32.539 32-55.39 5.46.005 10.829-1.397 15.59-4.069v2.809c-.002 13.173 5.233 25.807 14.553 35.117 9.701 9.656 12.561 24.238 7.227 36.843zm-101.37-230.7c44.179.009 79.991 35.821 80 80v20.305c-4.859-2.824-10.38-4.309-16-4.305-2.5 0-4.981-.1-7.39-.287-29.641-2.175-56.603-17.958-73.01-42.74l-.94-1.41c-2.451-3.676-7.417-4.67-11.094-2.22-1.347.898-2.39 2.183-2.991 3.687l-6.6 16.51c-4.933 12.36-14.932 22.01-27.46 26.5-5.111.232-10.091 1.695-14.515 4.265v-20.305c.05-44.162 35.838-79.95 80-80zm-94.543 193.857c9.343-9.294 14.58-21.939 14.543-35.117v-3.04c4.86 2.822 10.38 4.306 16 4.3.018 22.851 12.213 43.96 32 55.39v17.551l-17.894 2.235c-1.514-.47-3.059-.913-4.649-1.29-14.785-3.495-30.303-2.108-44.234 3.953l-3-7.129c-5.309-12.612-2.449-27.183 7.232-36.853zm-68.967 102.143h3.51v1.669c-.004 3.495-2.836 6.327-6.331 6.331h-5.169c0-.049 0-.1.006-.146.006-.335.033-.669.081-1 .014-.1.027-.2.045-.3.067-.381.163-.757.285-1.125.013-.039.032-.076.045-.115.121-.333.264-.658.428-.973.047-.092.096-.183.147-.273.194-.349.414-.683.657-1 1.51-1.942 3.836-3.075 6.296-3.068zm59.51 64c2.122 0 4.157-.843 5.657-2.343l16-16c3.124-3.124 3.124-8.19 0-11.314s-8.19-3.124-11.314 0l-13.656 13.657h-35.707c-11.017.013-20.623-7.489-23.28-18.181l-1.454-5.819h1.423c12.327-.014 22.317-10.004 22.331-22.331v-1.669h8c3.443 0 6.5-2.203 7.589-5.47 4.552-13.672 13.845-25.264 26.2-32.681l3.518-2.1c12.149-7.291 26.665-9.549 40.455-6.294 1.738.412 3.419.897 5.042 1.454 2.297.778 4.539 1.71 6.711 2.789l.425.218c3.63 1.814 7.043 4.032 10.174 6.613.083.069.168.137.254.2 6.533 5.417 11.702 12.291 15.092 20.071-1.079-.523-2.261-.796-3.46-.8h-32c-4.418 0-8 3.582-8 8v38.7c-.051 17.637 14.205 31.975 31.842 32.026 5.676.016 11.253-1.48 16.158-4.336v29.61c-10.175-.003-19.248 6.408-22.642 16h-1.358c-17.66-.013-31.987 14.292-32 31.952-.004 5.635 1.481 11.171 4.305 16.048h-40.648c5.982-10.303 5.75-23.074-.6-33.153 5.058-9.024 9.255-18.504 12.535-28.315 1.398-4.191-.866-8.723-5.057-10.121s-8.723.866-10.121 5.057c-2.548 7.624-5.711 15.029-9.457 22.142-1.991-1.055-4.089-1.896-6.257-2.51l-1.308-.37c-.141-2.192-.584-4.353-1.319-6.423 1.916-3.685 3.694-7.441 5.3-11.207l9.9-23.1zm-74.816 62.153 3.853-8.533c3.588-7.898 9.6-14.448 17.162-18.7 1.85-1.04 4.039-1.298 6.08-.717l1.322.374c4.249 1.205 6.72 5.623 5.523 9.874-1.202 4.251 1.271 8.672 5.522 9.874l7.7 2.176c8.489 2.455 13.38 11.327 10.925 19.815-2.434 8.414-11.181 13.308-19.625 10.979l-30.8-8.7c-6.357-1.79-10.06-8.396-8.269-14.753.162-.575.367-1.137.612-1.681zm290.816 1.847c-.015 13.248-10.752 23.985-24 24h-128c-8.837 0-16-7.163-16-16s7.163-16 16-16h8c4.418 0 8-3.582 8-8-.01-4.408 3.554-7.99 7.962-8h.038 1.37c2.121.016 4.152.858 5.663 2.347l11.31 11.31c1.5 1.5 3.535 2.343 5.657 2.343h64c4.418 0 8-3.582 8-8v-12.838c12.292-13.996 16.386-33.392 10.8-51.162h21.2z"/><path d="m152.093 228.079c-3.764-15.047-19.012-24.194-34.059-20.43-4.935 1.234-9.443 3.786-13.041 7.383l-4.46 4.46-4.461-4.46c-10.968-10.966-28.749-10.965-39.715.003-3.598 3.598-6.15 8.106-7.385 13.043-3.317 13.345 2.091 27.337 13.521 34.983l33.6 22.4c2.687 1.791 6.188 1.791 8.875 0l33.6-22.4c11.431-7.644 16.841-21.636 13.525-34.982zm-22.4 21.669-29.165 19.443-29.162-19.443c-5.813-3.888-8.564-11.003-6.877-17.79 1.62-6.475 8.182-10.41 14.657-8.79 2.124.531 4.063 1.63 5.611 3.177l10.117 10.118c3.124 3.124 8.189 3.124 11.314 0l10.117-10.118c4.719-4.719 12.37-4.719 17.089 0 1.549 1.549 2.647 3.489 3.179 5.614 1.685 6.787-1.067 13.902-6.88 17.789z"/><circle cx="207.993" cy="312" r="8"/></symbol><symbol id="call" viewBox="0 0 384 384"><title>call</title><path d="M353.188,252.052c-23.51,0-46.594-3.677-68.469-10.906c-10.719-3.656-23.896-0.302-30.438,6.417l-43.177,32.594 c-50.073-26.729-80.917-57.563-107.281-107.26l31.635-42.052c8.219-8.208,11.167-20.198,7.635-31.448 c-7.26-21.99-10.948-45.063-10.948-68.583C132.146,13.823,118.323,0,101.333,0H30.813C13.823,0,0,13.823,0,30.813 C0,225.563,158.438,384,353.188,384c16.99,0,30.813-13.823,30.813-30.813v-70.323C384,265.875,370.177,252.052,353.188,252.052z"/></symbol><symbol id="instagram" viewBox="0 0 511 511.9"><title>instagram</title><path d="m510.949219 150.5c-1.199219-27.199219-5.597657-45.898438-11.898438-62.101562-6.5-17.199219-16.5-32.597657-29.601562-45.398438-12.800781-13-28.300781-23.101562-45.300781-29.5-16.296876-6.300781-34.898438-10.699219-62.097657-11.898438-27.402343-1.300781-36.101562-1.601562-105.601562-1.601562s-78.199219.300781-105.5 1.5c-27.199219 1.199219-45.898438 5.601562-62.097657 11.898438-17.203124 6.5-32.601562 16.5-45.402343 29.601562-13 12.800781-23.097657 28.300781-29.5 45.300781-6.300781 16.300781-10.699219 34.898438-11.898438 62.097657-1.300781 27.402343-1.601562 36.101562-1.601562 105.601562s.300781 78.199219 1.5 105.5c1.199219 27.199219 5.601562 45.898438 11.902343 62.101562 6.5 17.199219 16.597657 32.597657 29.597657 45.398438 12.800781 13 28.300781 23.101562 45.300781 29.5 16.300781 6.300781 34.898438 10.699219 62.101562 11.898438 27.296876 1.203124 36 1.5 105.5 1.5s78.199219-.296876 105.5-1.5c27.199219-1.199219 45.898438-5.597657 62.097657-11.898438 34.402343-13.300781 61.601562-40.5 74.902343-74.898438 6.296876-16.300781 10.699219-34.902343 11.898438-62.101562 1.199219-27.300781 1.5-36 1.5-105.5s-.101562-78.199219-1.300781-105.5zm-46.097657 209c-1.101562 25-5.300781 38.5-8.800781 47.5-8.601562 22.300781-26.300781 40-48.601562 48.601562-9 3.5-22.597657 7.699219-47.5 8.796876-27 1.203124-35.097657 1.5-103.398438 1.5s-76.5-.296876-103.402343-1.5c-25-1.097657-38.5-5.296876-47.5-8.796876-11.097657-4.101562-21.199219-10.601562-29.398438-19.101562-8.5-8.300781-15-18.300781-19.101562-29.398438-3.5-9-7.699219-22.601562-8.796876-47.5-1.203124-27-1.5-35.101562-1.5-103.402343s.296876-76.5 1.5-103.398438c1.097657-25 5.296876-38.5 8.796876-47.5 4.101562-11.101562 10.601562-21.199219 19.203124-29.402343 8.296876-8.5 18.296876-15 29.398438-19.097657 9-3.5 22.601562-7.699219 47.5-8.800781 27-1.199219 35.101562-1.5 103.398438-1.5 68.402343 0 76.5.300781 103.402343 1.5 25 1.101562 38.5 5.300781 47.5 8.800781 11.097657 4.097657 21.199219 10.597657 29.398438 19.097657 8.5 8.300781 15 18.300781 19.101562 29.402343 3.5 9 7.699219 22.597657 8.800781 47.5 1.199219 27 1.5 35.097657 1.5 103.398438s-.300781 76.300781-1.5 103.300781zm0 0"/><path d="m256.449219 124.5c-72.597657 0-131.5 58.898438-131.5 131.5s58.902343 131.5 131.5 131.5c72.601562 0 131.5-58.898438 131.5-131.5s-58.898438-131.5-131.5-131.5zm0 216.800781c-47.097657 0-85.300781-38.199219-85.300781-85.300781s38.203124-85.300781 85.300781-85.300781c47.101562 0 85.300781 38.199219 85.300781 85.300781s-38.199219 85.300781-85.300781 85.300781zm0 0"/><path d="m423.851562 119.300781c0 16.953125-13.746093 30.699219-30.703124 30.699219-16.953126 0-30.699219-13.746094-30.699219-30.699219 0-16.957031 13.746093-30.699219 30.699219-30.699219 16.957031 0 30.703124 13.742188 30.703124 30.699219zm0 0"/></symbol><symbol id="facebook" viewBox="0 0 512 512"><title>facebook</title><path d="m512 256c0-141.4-114.6-256-256-256s-256 114.6-256 256 114.6 256 256 256c1.5 0 3 0 4.5-.1v-199.2h-55v-64.1h55v-47.2c0-54.7 33.4-84.5 82.2-84.5 23.4 0 43.5 1.7 49.3 2.5v57.2h-33.6c-26.5 0-31.7 12.6-31.7 31.1v40.8h63.5l-8.3 64.1h-55.2v189.5c107-30.7 185.3-129.2 185.3-246.1z"/></symbol><symbol id="twitter" viewBox="0 0 512 512"><title>twitter</title><path d="M512,97.248c-19.04,8.352-39.328,13.888-60.48,16.576c21.76-12.992,38.368-33.408,46.176-58.016 c-20.288,12.096-42.688,20.64-66.56,25.408C411.872,60.704,384.416,48,354.464,48c-58.112,0-104.896,47.168-104.896,104.992 c0,8.32,0.704,16.32,2.432,23.936c-87.264-4.256-164.48-46.08-216.352-109.792c-9.056,15.712-14.368,33.696-14.368,53.056 c0,36.352,18.72,68.576,46.624,87.232c-16.864-0.32-33.408-5.216-47.424-12.928c0,0.32,0,0.736,0,1.152 c0,51.008,36.384,93.376,84.096,103.136c-8.544,2.336-17.856,3.456-27.52,3.456c-6.72,0-13.504-0.384-19.872-1.792 c13.6,41.568,52.192,72.128,98.08,73.12c-35.712,27.936-81.056,44.768-130.144,44.768c-8.608,0-16.864-0.384-25.12-1.44 C46.496,446.88,101.6,464,161.024,464c193.152,0,298.752-160,298.752-298.688c0-4.64-0.16-9.12-0.384-13.568 C480.224,136.96,497.728,118.496,512,97.248z"/></symbol><symbol id="send" viewBox="0 0 512.001 512.001"><title>send</title><path d="M507.608,4.395c-4.243-4.244-10.609-5.549-16.177-3.321L9.43,193.872c-5.515,2.206-9.208,7.458-9.42,13.395 c-0.211,5.936,3.101,11.437,8.445,14.029l190.068,92.181l92.182,190.068c2.514,5.184,7.764,8.455,13.493,8.455 c0.178,0,0.357-0.003,0.536-0.01c5.935-0.211,11.189-3.904,13.394-9.419l192.8-481.998 C513.156,15.001,511.851,8.638,507.608,4.395z M52.094,209.118L434.72,56.069L206.691,284.096L52.094,209.118z M302.883,459.907 l-74.979-154.599l228.03-228.027L302.883,459.907z"/></symbol><symbol id="expand" viewBox="0 0 64 64"><title>expand</title><path d="m26.586 34.586-14.586 14.586v-5.172c0-1.104-.896-2-2-2s-2 .896-2 2v10c0 1.104.896 2 2 2h10c1.104 0 2-.896 2-2s-.896-2-2-2h-5.172l14.586-14.586c.781-.781.781-2.047 0-2.828-.78-.781-2.048-.781-2.828 0z"/><path d="m54 8h-10c-1.104 0-2 .896-2 2s.896 2 2 2h5.172l-14.586 14.586c-.781.781-.781 2.047 0 2.828.391.391.902.586 1.414.586s1.023-.195 1.414-.586l14.586-14.586v5.172c0 1.104.896 2 2 2s2-.896 2-2v-10c0-1.104-.896-2-2-2z"/></symbol><symbol id="speech-bubble" viewBox="0 0 511.096 511.096"><title>speech-bubble</title><path d="m74.414 480.548h-36.214l25.607-25.607c13.807-13.807 22.429-31.765 24.747-51.246-59.127-38.802-88.554-95.014-88.554-153.944 0-108.719 99.923-219.203 256.414-219.203 165.785 0 254.682 101.666 254.682 209.678 0 108.724-89.836 210.322-254.682 210.322-28.877 0-59.01-3.855-85.913-10.928-25.467 26.121-59.973 40.928-96.087 40.928z"/></symbol><symbol id="check" viewBox="0 -46 417.81333 417"><title>check</title><path d="m159.988281 318.582031c-3.988281 4.011719-9.429687 6.25-15.082031 6.25s-11.09375-2.238281-15.082031-6.25l-120.449219-120.46875c-12.5-12.5-12.5-32.769531 0-45.246093l15.082031-15.085938c12.503907-12.5 32.75-12.5 45.25 0l75.199219 75.203125 203.199219-203.203125c12.503906-12.5 32.769531-12.5 45.25 0l15.082031 15.085938c12.5 12.5 12.5 32.765624 0 45.246093zm0 0"/></symbol><symbol id="left-quote" viewBox="0 0 95.333 95.332"><title>left-quote</title><path d="M30.512,43.939c-2.348-0.676-4.696-1.019-6.98-1.019c-3.527,0-6.47,0.806-8.752,1.793 c2.2-8.054,7.485-21.951,18.013-23.516c0.975-0.145,1.774-0.85,2.04-1.799l2.301-8.23c0.194-0.696,0.079-1.441-0.318-2.045 s-1.035-1.007-1.75-1.105c-0.777-0.106-1.569-0.16-2.354-0.16c-12.637,0-25.152,13.19-30.433,32.076 c-3.1,11.08-4.009,27.738,3.627,38.223c4.273,5.867,10.507,9,18.529,9.313c0.033,0.001,0.065,0.002,0.098,0.002 c9.898,0,18.675-6.666,21.345-16.209c1.595-5.705,0.874-11.688-2.032-16.851C40.971,49.307,36.236,45.586,30.512,43.939z"/><path d="M92.471,54.413c-2.875-5.106-7.61-8.827-13.334-10.474c-2.348-0.676-4.696-1.019-6.979-1.019 c-3.527,0-6.471,0.806-8.753,1.793c2.2-8.054,7.485-21.951,18.014-23.516c0.975-0.145,1.773-0.85,2.04-1.799l2.301-8.23 c0.194-0.696,0.079-1.441-0.318-2.045c-0.396-0.604-1.034-1.007-1.75-1.105c-0.776-0.106-1.568-0.16-2.354-0.16 c-12.637,0-25.152,13.19-30.434,32.076c-3.099,11.08-4.008,27.738,3.629,38.225c4.272,5.866,10.507,9,18.528,9.312 c0.033,0.001,0.065,0.002,0.099,0.002c9.897,0,18.675-6.666,21.345-16.209C96.098,65.559,95.376,59.575,92.471,54.413z"/></symbol><symbol id="play-button-arrowhead" viewBox="0 0 163.861 163.861"><title>play-button-arrowhead</title><path d="M34.857,3.613C20.084-4.861,8.107,2.081,8.107,19.106v125.637c0,17.042,11.977,23.975,26.75,15.509L144.67,97.275 c14.778-8.477,14.778-22.211,0-30.686L34.857,3.613z"/></symbol><symbol id="add" viewBox="0 0 448 448"><title>add</title><path d="m408 184h-136c-4.417969 0-8-3.582031-8-8v-136c0-22.089844-17.910156-40-40-40s-40 17.910156-40 40v136c0 4.417969-3.582031 8-8 8h-136c-22.089844 0-40 17.910156-40 40s17.910156 40 40 40h136c4.417969 0 8 3.582031 8 8v136c0 22.089844 17.910156 40 40 40s40-17.910156 40-40v-136c0-4.417969 3.582031-8 8-8h136c22.089844 0 40-17.910156 40-40s-17.910156-40-40-40zm0 0"/></symbol><symbol id="minus" viewBox="0 -192 469.33333 469"><title>minus</title><path d="m437.332031.167969h-405.332031c-17.664062 0-32 14.335937-32 32v21.332031c0 17.664062 14.335938 32 32 32h405.332031c17.664063 0 32-14.335938 32-32v-21.332031c0-17.664063-14.335937-32-32-32zm0 0"/></symbol><symbol id="worldwide" viewBox="0 0 480.1 480.1"><title>worldwide</title><path d="M240.135,0.05C144.085,0.036,57.277,57.289,19.472,145.586l-2.992,0.992l1.16,3.48 c-49.776,122.766,9.393,262.639,132.159,312.415c28.673,11.626,59.324,17.594,90.265,17.577 c132.548,0.02,240.016-107.416,240.036-239.964S372.684,0.069,240.135,0.05z M428.388,361.054l-12.324-12.316V320.05 c0.014-1.238-0.26-2.462-0.8-3.576l-31.2-62.312V224.05c0-2.674-1.335-5.172-3.56-6.656l-24-16 c-1.881-1.256-4.206-1.657-6.4-1.104l-29.392,7.344l-49.368-21.184l-6.792-47.584l18.824-18.816h40.408l13.6,20.44 c1.228,1.838,3.163,3.087,5.344,3.448l48,8c1.286,0.216,2.604,0.111,3.84-0.304l44.208-14.736 C475.855,208.053,471.889,293.634,428.388,361.054z M395.392,78.882l-13.008,8.672l-36.264-7.256l-23.528-7.832 c-1.44-0.489-2.99-0.551-4.464-0.176l-29.744,7.432l-13.04-4.344l9.664-19.328h27.056c1.241,0.001,2.465-0.286,3.576-0.84 l27.68-13.84C362.382,51.32,379.918,63.952,395.392,78.882z M152.44,33.914l19.2,12.8c0.944,0.628,2.01,1.048,3.128,1.232 l38.768,6.464l-3.784,11.32l-20.2,6.744c-1.809,0.602-3.344,1.83-4.328,3.464l-22.976,38.288l-36.904,22.144l-54.4,7.768 c-3.943,0.557-6.875,3.93-6.88,7.912v24c0,2.122,0.844,4.156,2.344,5.656l13.656,13.656v13.744l-33.28-22.192l-12.072-36.216 C57.68,98.218,99.777,56.458,152.44,33.914z M129.664,296.21l-36.16-7.24l-13.44-26.808v-18.8l29.808-29.808l11.032,22.072 c1.355,2.712,4.128,4.425,7.16,4.424h51.472l21.672,36.12c1.446,2.407,4.048,3.879,6.856,3.88h22.24l-5.6,28.056l-30.288,30.288 c-1.503,1.499-2.349,3.533-2.352,5.656v20l-28.8,21.6c-2.014,1.511-3.2,3.882-3.2,6.4v28.896l-9.952-3.296l-14.048-35.136V304.05 C136.065,300.248,133.389,296.97,129.664,296.21z M105.616,419.191C30.187,362.602-1.712,264.826,25.832,174.642l6.648,19.936 c0.56,1.687,1.666,3.14,3.144,4.128l39.88,26.584l-9.096,9.104c-1.5,1.5-2.344,3.534-2.344,5.656v24 c-0.001,1.241,0.286,2.465,0.84,3.576l16,32c1.108,2.21,3.175,3.784,5.6,4.264l33.6,6.712v73.448 c-0.001,1.016,0.192,2.024,0.568,2.968l16,40c0.876,2.185,2.67,3.874,4.904,4.616l24,8c0.802,0.272,1.642,0.412,2.488,0.416 c4.418,0,8-3.582,8-8v-36l28.8-21.6c2.014-1.511,3.2-3.882,3.2-6.4v-20.688l29.656-29.656c1.115-1.117,1.875-2.54,2.184-4.088 l8-40c0.866-4.333-1.944-8.547-6.277-9.413c-0.515-0.103-1.038-0.155-1.563-0.155h-27.472l-21.672-36.12 c-1.446-2.407-4.048-3.879-6.856-3.88h-51.056l-13.744-27.576c-1.151-2.302-3.339-3.91-5.88-4.32 c-2.54-0.439-5.133,0.399-6.936,2.24l-10.384,10.344V192.05c0-2.122-0.844-4.156-2.344-5.656l-13.656-13.656v-13.752l49.136-7.016 c1.055-0.153,2.07-0.515,2.984-1.064l40-24c1.122-0.674,2.062-1.614,2.736-2.736l22.48-37.464l21.192-7.072 c2.393-0.785,4.271-2.662,5.056-5.056l8-24c1.386-4.195-0.891-8.72-5.086-10.106c-0.387-0.128-0.784-0.226-1.186-0.294 l-46.304-7.72l-8.136-5.424c50.343-16.386,104.869-14.358,153.856,5.72l-14.616,7.296h-30.112c-3.047-0.017-5.838,1.699-7.2,4.424 l-16,32c-1.971,3.954-0.364,8.758,3.59,10.729c0.337,0.168,0.685,0.312,1.042,0.431l24,8c1.44,0.489,2.99,0.551,4.464,0.176 l29.744-7.432l21.792,7.256c0.312,0.112,0.633,0.198,0.96,0.256l40,8c2.08,0.424,4.244-0.002,6.008-1.184l18.208-12.144 c8.961,9.981,17.014,20.741,24.064,32.152l-39.36,13.12l-42.616-7.104l-14.08-21.12c-1.476-2.213-3.956-3.547-6.616-3.56h-48 c-2.122,0-4.156,0.844-5.656,2.344l-24,24c-1.782,1.781-2.621,4.298-2.264,6.792l8,56c0.403,2.769,2.223,5.126,4.8,6.216l56,24 c1.604,0.695,3.394,0.838,5.088,0.408l28.568-7.144l17.464,11.664v27.72c-0.014,1.238,0.26,2.462,0.8,3.576l31.2,62.312v30.112 c0,2.122,0.844,4.156,2.344,5.656l16.736,16.744C344.921,473.383,204.549,493.415,105.616,419.191z"/></symbol><symbol id="pin" viewBox="0 0 512 512"><title>pin</title><path d="m407.579 87.677c-31.073-53.624-86.265-86.385-147.64-87.637-2.62-.054-5.257-.054-7.878 0-61.374 1.252-116.566 34.013-147.64 87.637-31.762 54.812-32.631 120.652-2.325 176.123l126.963 232.387c.057.103.114.206.173.308 5.586 9.709 15.593 15.505 26.77 15.505 11.176 0 21.183-5.797 26.768-15.505.059-.102.116-.205.173-.308l126.963-232.387c30.304-55.471 29.435-121.311-2.327-176.123zm-151.579 144.323c-39.701 0-72-32.299-72-72s32.299-72 72-72 72 32.299 72 72-32.298 72-72 72z"/></symbol></svg>